<svg version="1.2" xmlns="http://www.w3.org/2000/svg" viewBox="0 0 288 288" width="576" height="576">
	<title>Avatar_Image</title>
	<style>
		.s0 { fill: #000000 } 
	</style>
	<path id="Color Fill 1" fill-rule="evenodd" class="s0" d="m202 40.2c16.8-0.2 20.9 0.1 22.8 1.3 1.6 1.1 2.2 2.5 2.2 5.2 0 2.1-2.1 12.6-4.6 23.3-2.6 10.7-7.5 30.7-11 44.5-3.4 13.7-6.7 28.6-7.3 33-0.5 4.4-1.4 10-2 12.5-0.6 2.5-2.2 7.4-3.7 11-2.3 5.7-2.6 7.8-2.5 16.7 0 6-0.3 10.5-0.9 10.8-0.6 0.3-1.4 1.4-2 2.5-0.9 1.8-0.7 1.9 1.2 1.3 2.3-0.6 2.3-0.5 1.6 5.8-0.4 3.5-1.6 9.3-2.7 12.9-1.1 3.6-3.1 8.1-4.3 10-1.3 1.9-3.8 5.5-4.7 3.1-0.3-0.9-1.7 1.5-2.4 2.9-0.7 1.4-3.7 4-6.7 5.8-3 1.8-6.1 3.2-6.8 3.2-0.6 0-1.3-1-1.5-2.3-0.6-3.6-0.6-2.3-1.9 1.3-1.1 3.2-2.3 3.7-7.9 5.4-4.7 1.3-8.2 1.7-12.9 1.3-3.6-0.3-8.2-1.2-10.3-2.1-2.4-1-4.4-2.9-5.7-5.4-1.2-2-1.8-2.7-1.5-1.5 0.3 1.3 0 2.5-0.7 2.9-0.7 0.3-4-0.9-7.2-2.8-3.9-2.2-6.5-4.4-7.5-6.5-1.1-2.3-1.8-2.9-2.4-2-0.5 0.9-1.3 0.5-3-1.3-1.3-1.4-3.3-5.2-4.6-8.5-1.2-3.3-2.8-9.5-3.4-13.7-0.7-4.2-0.9-7.9-0.5-8.2 0.5-0.3 1.7-0.2 2.8 0.4 1.1 0.6 2 0.7 2 0.2-0.1-0.4-1.5-2.3-3.1-4.2-2.6-2.9-3-4.1-2.5-7 0.3-1.9 0.8-6.4 1.1-10 0.6-6.1 0.3-7.8-5.5-26-3.4-10.7-9.6-28.8-13.6-40.3-4.1-11.4-8.8-25.5-10.4-31.5-1.7-5.9-3.3-13.4-3.6-16.7-0.5-4.4-0.2-7 1-9.8 0.9-2 3.1-4.6 4.9-5.7 1.7-1.1 8.8-3.3 15.7-4.9 6.9-1.6 15.9-3.5 20-4.2 4.1-0.6 22.8-1.5 41.5-1.9 18.7-0.3 43.2-0.7 54.5-0.8zm-15 11.4c-2.5 0.3-9.2 1.1-15 1.9-5.8 0.7-12.3 2-14.4 2.7-2.1 0.7-4.4 2.1-5 3-0.6 0.9-0.9 1.9-0.6 2.2 0.3 0.3 2.3 0.1 4.5-0.4 2.2-0.5 13-1.7 24-2.6 19.2-1.6 20.5-1.6 31.3 0.2l11.3 1.9c0.8-3.9 1.3-5.6 1.5-6.3 0.2-0.6-0.2-1.4-0.9-1.6-0.6-0.2-8.2-0.6-16.7-0.9-8.5-0.3-17.5-0.3-20-0.1zm-24 13.6c-4.7 0.5-9.4 1.3-10.5 1.8-1.1 0.4-2.3 2-2.7 3.6-0.3 1.6-0.6 2.9-0.5 3 0.1 0 3.8-0.3 8.2-0.7 4.4-0.4 12.5-0.3 18 0.1 5.5 0.5 13.8 1.7 18.5 2.8 4.7 1.2 11.7 3.2 15.5 4.6 3.8 1.4 7.2 2.6 7.5 2.6 0.3 0 1.2-2.7 2-6 1-4 1.2-6.3 0.5-6.9-0.6-0.5-5.3-1.9-10.5-3.1-7-1.7-13.2-2.4-23.5-2.6-7.7-0.1-17.8 0.2-22.5 0.8zm-13 11.7l-2.5 0.8c4.7 0.9 9.6 1.5 14 1.8 4.4 0.4 9.6 1.4 11.5 2.2 1.9 0.8 8.4 4.4 14.5 8 6.1 3.7 13.9 8.6 17.5 11 3.6 2.4 6.8 4.1 7.2 3.6 0.4-0.4 1-2.6 1.4-4.8 0.6-3.9 0.6-4-3.7-6.2-2.4-1.3-7.3-4.1-10.9-6.3-3.6-2.3-10.8-5.4-16-7.1-7.4-2.4-11.8-3.1-20-3.4-5.8-0.3-11.6-0.1-13 0.4zm-2.9 2.8c0 0.4 4.7 3.3 10.7 6.3 8.2 4.2 12.2 7 17.2 12 3.6 3.6 11.4 11.8 17.5 18.2 6.1 6.5 11.4 11.8 12 11.8 0.6 0 1.6-1.7 2.3-3.7l1.2-3.8c-8.1-7.6-12.8-11.7-15.6-13.9-2.8-2.3-8.6-7.2-13-10.9-5.1-4.5-11.1-8.4-16.9-11.2-4.9-2.4-10.4-4.6-12.2-5-1.7-0.4-3.1-0.3-3.2 0.2zm0 3c0 0.4 2.6 4.2 5.8 8.3 3.2 4.1 8 10.9 10.8 15 2.7 4.1 7.5 11.8 10.5 17 3.1 5.2 6.5 10.4 7.7 11.5 1.2 1.1 2.3 3 2.6 4.2 0.3 1.3 3.5 7.3 7.2 13.4l6.8 11 3.5-9.1c-18.1-27.5-27.5-41.4-32.6-48.5-5.1-7.2-11.6-15-14.5-17.6-3-2.5-5.9-4.9-6.5-5.3-0.7-0.4-1.2-0.4-1.3 0.1zm-5 12.5c-1.9 4.6-6.2 14.9-9.7 23-3.5 8.2-6.2 15.1-6 15.5 0.2 0.5 4.1 1.4 8.7 2.2 5.3 0.9 11.7 1.1 17.4 0.8 4.9-0.4 11.4-1 14.3-1.4 2.9-0.4 5.2-0.9 5.2-1.1 0-0.1-1.4-3.7-3.1-8-1.7-4.2-5.3-12-8.1-17.2-2.8-5.2-7-12.3-9.4-15.8-2.4-3.4-4.8-6.2-5.2-6.2-0.4 0-2.3 3.7-4.1 8.2zm2.7 47.5c-0.8 1-2.2 3.8-3.1 6.3-0.9 2.5-2.4 5.5-3.4 6.8-1.1 1.5-3.5 2.7-6.3 3.2-2.5 0.5-6.5 0.4-9-0.1-2.5-0.5-5.4-1.1-6.5-1.4-1.7-0.4-2.3 0.9-5.8 7.7-3.1 6.1-3.9 9.5-3.7 10.3 0.3 1.1 1.4 4.5 3 7.5 2.4 4.4 2.7 5.8 1.7 6.8-0.6 0.7-2.2 1.3-3.4 1.2-1.6 0-2.4-0.7-2.8-2.5-0.3-1.4-1.2-2.5-2-2.5-0.8 0-1.8 1-2.1 2.2-0.3 1.3-0.3 3.6 0 5.3 0.3 1.6 1.6 4 2.8 5.3 1.3 1.2 4.1 2.5 6.3 2.8 2.6 0.4 5.8 0.4 8.8-0.7 2.4-1 2.6-3.1 9.4-2.4 10.9 1.1 7.2-1 16.7-1.1 11.3-0.2 10.2 2.1 13.1 1.8 6.5-0.6 10-1.8 13 0.7 1.4 1.2 6.8 2.3 10 2.2 5.1-0.1 6-2.2 8.8-5.5 1.5-1.9 1.7-3.2 1.7-4.6 0-1.4-0.7-4.5-1.4-7-0.9-2.8-1.6-3.9-2-3-0.3 0.8-0.7 3.1-0.8 5-0.3 2.9-0.7 3.5-2.8 3.8-1.4 0.1-3.1-0.2-3.8-0.8-0.9-0.8-0.7-1.8 1.2-4.8 1.4-2 3.2-5.5 4.1-7.7l1.6-4c-7.2-14.7-8.5-16.4-9.8-16-1 0.2-3.9 0.9-6.5 1.5-3.2 0.6-6.3 0.7-9 0.1-2.8-0.7-5.1-2-6.5-3.8-1.2-1.5-2.7-4.6-3.3-6.8-0.7-2.2-1.9-4.8-2.8-5.8-1-1-2.2-1.8-2.8-1.7-0.6 0-1.8 0.8-2.6 1.7zm-7.5 36c2.7 0.4 6.8 2.5 8.7 2.5 4.9 0.2 5.1-1.6 7.3-2.1 3.8-0.9 5.9-0.2 7 0.3 1.3 0.6 6.4 3.2 11 6.3 4.5 3.1 9.5 6.2 11.2 6.9 2.5 1.1 3.4 1.1 5.3-0.1 1.6-1.1 2.2-1.2 2.2-0.3 0.1 0.7-0.8 2.5-2 4-1.1 1.6-3.2 3.1-4.7 3.4-1.6 0.3-4.8 0-7.3-0.6-1.8-0.5-5.6-2-9.7-3.7-1.6-0.7-3.2-1.4-4.8-2.1-7.7-3.6-11.1-5.2-15-5.2-3.8 0-7.7 1.8-16.5 5.7-6.3 2.8-13.3 5.4-15.5 5.8-2.2 0.3-5.1 0.1-6.5-0.4-1.4-0.6-3.1-2.2-3.7-3.6-0.7-1.4-1.3-2.9-1.3-3.5 0-0.6 1-0.3 2.3 0.5 2 1.4 2.6 1.3 7.2-1.1 2.8-1.4 7.7-4.5 11.1-6.8 3.3-2.3 6.7-4.5 7.5-4.9 0.8-0.3 3.4-1.3 6.2-1z"/>
</svg>